<svg width="16" height="15" viewBox="0 0 16 15" fill="none" xmlns="http://www.w3.org/2000/svg">
<g clip-path="url(#clip0_5_3616)">
<g clip-path="url(#clip1_5_3616)">
<path fill-rule="evenodd" clip-rule="evenodd" d="M7.88361 7.20703C8.13214 7.20703 8.33361 7.4085 8.33361 7.65703V13.057C8.33361 13.3056 8.13214 13.507 7.88361 13.507C7.63508 13.507 7.43361 13.3056 7.43361 13.057V9.93925C7.4336 9.93789 7.43359 9.93652 7.43359 9.93515L7.43361 7.65703C7.43361 7.4085 7.63508 7.20703 7.88361 7.20703Z" fill="#588157"/>
<path fill-rule="evenodd" clip-rule="evenodd" d="M5.88873 1.81215C6.68177 1.78294 7.47111 1.93388 8.19741 2.25363C8.92371 2.57338 9.56808 3.05363 10.0821 3.65826C10.52 4.1734 10.8535 4.76741 11.0655 5.40712H11.4852C12.2517 5.40763 12.9965 5.66337 13.6015 6.134C14.2065 6.60462 14.6376 7.26332 14.8266 8.00614C15.0157 8.74895 14.952 9.53357 14.6456 10.2362C14.3393 10.9388 13.8076 11.5193 13.1346 11.8862C12.9164 12.0052 12.6431 11.9247 12.5241 11.7065C12.4052 11.4883 12.4856 11.215 12.7038 11.096C13.2013 10.8248 13.5942 10.3957 13.8207 9.87642C14.0471 9.35711 14.0942 8.77717 13.9545 8.22813C13.8147 7.67909 13.4961 7.19223 13.0489 6.84438C12.6018 6.49652 12.0515 6.30749 11.4849 6.30712H10.7292C10.5241 6.30712 10.3449 6.16837 10.2936 5.96976C10.129 5.33316 9.82221 4.74215 9.39634 4.24117C8.97047 3.74019 8.43657 3.34228 7.83477 3.07734C7.23298 2.8124 6.57895 2.68733 5.92187 2.71154C5.26478 2.73575 4.62174 2.90861 4.04107 3.21711C3.4604 3.52562 2.95723 3.96174 2.56938 4.49271C2.18153 5.02367 1.91909 5.63564 1.8018 6.28263C1.68451 6.92961 1.71541 7.59477 1.89219 8.22809C2.06897 8.86142 2.38702 9.44642 2.82243 9.93913C2.987 10.1254 2.96945 10.4097 2.78322 10.5743C2.59699 10.7389 2.3126 10.7213 2.14803 10.5351C1.62253 9.94046 1.23868 9.23441 1.02533 8.47006C0.811974 7.7057 0.774676 6.90293 0.916236 6.12208C1.0578 5.34124 1.37453 4.60265 1.84263 3.96183C2.31072 3.32102 2.918 2.79466 3.6188 2.42232C4.31961 2.04999 5.0957 1.84137 5.88873 1.81215Z" fill="#588157"/>
<path fill-rule="evenodd" clip-rule="evenodd" d="M7.56696 7.33883C7.74269 7.1631 8.02762 7.1631 8.20335 7.33883L10.6034 9.73883C10.7791 9.91457 10.7791 10.1995 10.6034 10.3752C10.4276 10.551 10.1427 10.551 9.96696 10.3752L7.88516 8.29343L5.80335 10.3752C5.62762 10.551 5.34269 10.551 5.16696 10.3752C4.99122 10.1995 4.99122 9.91457 5.16696 9.73883L7.56696 7.33883Z" fill="#588157"/>
</g>
</g>
<defs>
<clipPath id="clip0_5_3616">
<rect width="14.4" height="14.4" fill="white" transform="translate(0.683594 0.457031)"/>
</clipPath>
<clipPath id="clip1_5_3616">
<rect width="14.4" height="14.4" fill="white" transform="translate(0.683594 0.457031)"/>
</clipPath>
</defs>
</svg>
