<svg width="20" height="20" viewBox="0 0 20 20" fill="none" xmlns="http://www.w3.org/2000/svg">
<path d="M18.6416 14.3611C18.0375 14.3153 17.383 14.4399 16.7868 14.5478C15.6862 14.747 13.8791 15.0475 12.9896 15.1702C10.4449 15.5274 8.68623 15.6059 5.30529 15.8553C3.82027 15.9632 3.71297 15.9661 3.42462 16.1009C3.41063 16.1074 3.39714 16.1138 3.38415 16.12C3.02768 16.2907 3.05218 16.7761 3.4102 16.9434L-nan -nanL3.4102 16.9434C3.85715 17.1524 5.0914 17.3384 7.52078 17.2373C10.289 17.1227 11.966 16.9631 14.936 16.5183C17.9205 16.0734 18.7639 15.8577 19.1748 15.4398C19.5137 15.096 19.4127 14.604 18.973 14.4287C18.9193 14.3934 18.7938 14.3726 18.6416 14.3611Z" fill="white"/>
<path d="M17.7041 13.3149H10.3125V2.73438H12.4254V11.1973H17.7041V13.3149Z" fill="white"/>
<path d="M2.73794 4.85196V9.08712H4.85088C5.14046 9.08712 5.41286 9.03301 5.66808 8.9248C5.9233 8.81166 6.14662 8.65918 6.33804 8.46734C6.52945 8.2755 6.67915 8.05169 6.78713 7.79591C6.90002 7.53521 6.95646 7.25975 6.95646 6.96954C6.95646 6.67932 6.90002 6.40633 6.78713 6.15054C6.67915 5.88984 6.52945 5.66357 6.33804 5.47174C6.14662 5.2799 5.9233 5.12987 5.66808 5.02166C5.41286 4.90852 5.14046 4.85196 4.85088 4.85196H2.73794ZM2.73794 13.3149H0.625V2.73438H4.85088C5.23862 2.73438 5.61164 2.78602 5.96993 2.88932C6.32822 2.9877 6.66197 3.13035 6.97118 3.31726C7.2853 3.49926 7.56997 3.72061 7.82519 3.98131C8.08532 4.2371 8.30619 4.52239 8.48779 4.8372C8.6743 5.15201 8.81663 5.48895 8.91479 5.84803C9.01786 6.20711 9.0694 6.58095 9.0694 6.96954C9.0694 7.54997 8.95897 8.09842 8.7381 8.61491C8.51724 9.12647 8.21539 9.57409 7.83256 9.95776C7.44972 10.3414 7.00063 10.6439 6.48528 10.8653C5.97484 11.0866 5.43004 11.1973 4.85088 11.1973H2.73794V13.3149Z" fill="white"/>
</svg>
